<svg width="104" height="11" viewBox="0 0 104 11" fill="none" xmlns="http://www.w3.org/2000/svg">
<path d="M6.44727 10.0898H5.16211L1.2998 2.65234L1.2793 10.0898H0.000976562V0.136719H1.28613L5.14844 7.56055L5.16895 0.136719H6.44727V10.0898ZM14.4467 5.48926H10.2904V9.0166H15.1371V10.0898H9.02578V0.136719H15.0756V1.2168H10.2904V4.41602H14.4467V5.48926ZM24.4422 1.2168H21.366V10.0898H20.1355V1.2168H17.0594V0.136719H24.4422V1.2168ZM31.6965 7.57422C31.6965 7.26888 31.6258 7.01139 31.4846 6.80176C31.3479 6.59212 31.1701 6.41439 30.9514 6.26855C30.7326 6.12728 30.4911 6.00879 30.2268 5.91309C29.967 5.81738 29.7163 5.73079 29.4748 5.65332C29.1239 5.53939 28.7661 5.40267 28.4016 5.24316C28.0415 5.0791 27.7134 4.88314 27.4172 4.65527C27.1164 4.42285 26.8703 4.14941 26.6789 3.83496C26.4921 3.51595 26.3986 3.14225 26.3986 2.71387C26.3986 2.28548 26.4921 1.90267 26.6789 1.56543C26.8703 1.22819 27.1187 0.943359 27.424 0.710938C27.7294 0.478516 28.0757 0.30306 28.4631 0.18457C28.8505 0.0615234 29.2401 0 29.632 0C30.065 0 30.482 0.0729167 30.883 0.21875C31.284 0.360026 31.6395 0.560547 31.9494 0.820312C32.2593 1.08008 32.5077 1.39453 32.6945 1.76367C32.8814 2.13281 32.9794 2.54525 32.9885 3.00098H31.6896C31.6532 2.71387 31.5826 2.4541 31.4777 2.22168C31.3729 1.9847 31.2339 1.7819 31.0607 1.61328C30.8876 1.44466 30.6802 1.31478 30.4387 1.22363C30.2017 1.12793 29.9328 1.08008 29.632 1.08008C29.3905 1.08008 29.1535 1.11426 28.9211 1.18262C28.6932 1.25098 28.4904 1.35352 28.3127 1.49023C28.1304 1.62695 27.9846 1.79557 27.8752 1.99609C27.7704 2.19661 27.718 2.42904 27.718 2.69336C27.7225 2.98047 27.7954 3.22428 27.9367 3.4248C28.078 3.62077 28.258 3.78711 28.4768 3.92383C28.6909 4.06055 28.9234 4.17448 29.174 4.26562C29.4292 4.35677 29.6685 4.43652 29.8918 4.50488C30.2609 4.61882 30.6301 4.75781 30.9992 4.92188C31.3684 5.08138 31.7056 5.28646 32.0109 5.53711C32.3117 5.76953 32.5533 6.05436 32.7355 6.3916C32.9224 6.72884 33.0158 7.11849 33.0158 7.56055C33.0158 8.00716 32.9156 8.39681 32.715 8.72949C32.5191 9.06217 32.2639 9.33789 31.9494 9.55664C31.635 9.77995 31.2795 9.94857 30.883 10.0625C30.4865 10.1719 30.09 10.2266 29.6936 10.2266C29.2196 10.2266 28.7525 10.1468 28.2922 9.9873C27.8365 9.8278 27.44 9.59766 27.1027 9.29688C26.802 9.03711 26.5627 8.73405 26.385 8.3877C26.2118 8.03678 26.1184 7.64714 26.1047 7.21875H27.3967C27.4377 7.52865 27.522 7.80436 27.6496 8.0459C27.7772 8.28288 27.9413 8.4834 28.1418 8.64746C28.3423 8.81608 28.5725 8.94368 28.8322 9.03027C29.0965 9.1123 29.3837 9.15332 29.6936 9.15332C29.9396 9.15332 30.1812 9.1237 30.4182 9.06445C30.6597 9.00065 30.8739 8.90267 31.0607 8.77051C31.2476 8.6429 31.4003 8.48112 31.5187 8.28516C31.6372 8.08464 31.6965 7.84766 31.6965 7.57422ZM36.6266 6.09766V10.0898H35.3619V0.136719H38.5885C39.0351 0.145833 39.4566 0.216471 39.8531 0.348633C40.2542 0.480794 40.6051 0.672201 40.9059 0.922852C41.2066 1.1735 41.4436 1.4834 41.6168 1.85254C41.7945 2.22168 41.8834 2.64551 41.8834 3.12402C41.8834 3.60254 41.7945 4.02637 41.6168 4.39551C41.4436 4.76009 41.2066 5.06771 40.9059 5.31836C40.6051 5.56901 40.2542 5.76042 39.8531 5.89258C39.4566 6.02474 39.0351 6.0931 38.5885 6.09766H36.6266ZM36.6266 5.05859H38.5885C38.8801 5.05404 39.149 5.00846 39.3951 4.92188C39.6412 4.83073 39.8554 4.70312 40.0377 4.53906C40.22 4.375 40.3613 4.17676 40.4615 3.94434C40.5663 3.70736 40.6188 3.43848 40.6188 3.1377C40.6188 2.83691 40.5663 2.56576 40.4615 2.32422C40.3613 2.08268 40.2223 1.8776 40.0445 1.70898C39.8622 1.54036 39.6458 1.41048 39.3951 1.31934C39.149 1.22819 38.8801 1.18034 38.5885 1.17578H36.6266V5.05859ZM44.0039 0.136719H50.0195V1.2373H47.6338V8.99609H50.0195V10.0898H44.0039V8.99609H46.335V1.2373H44.0039V0.136719ZM56.057 6.0293H54.0678V10.0898H52.81V0.136719H55.7289C56.1937 0.145833 56.6312 0.211914 57.0414 0.334961C57.4516 0.458008 57.8116 0.642578 58.1215 0.888672C58.4268 1.13477 58.6661 1.44466 58.8393 1.81836C59.017 2.1875 59.1059 2.62272 59.1059 3.12402C59.1059 3.44759 59.058 3.74382 58.9623 4.0127C58.8712 4.28158 58.7436 4.52539 58.5795 4.74414C58.4154 4.96289 58.2195 5.15658 57.9916 5.3252C57.7637 5.49382 57.5131 5.63737 57.2396 5.75586L59.352 10.0078L59.3451 10.0898H58.0121L56.057 6.0293ZM54.0678 4.99023H55.7631C56.0456 4.98568 56.3122 4.94238 56.5629 4.86035C56.8135 4.77376 57.0346 4.65072 57.226 4.49121C57.4128 4.33171 57.5609 4.13802 57.6703 3.91016C57.7797 3.67773 57.8344 3.41113 57.8344 3.11035C57.8344 2.79134 57.782 2.51335 57.6771 2.27637C57.5723 2.03483 57.4265 1.83203 57.2396 1.66797C57.0528 1.50846 56.8295 1.3877 56.5697 1.30566C56.3145 1.22363 56.0342 1.18034 55.7289 1.17578H54.0678V4.99023ZM66.9959 5.48926H62.8396V9.0166H67.6863V10.0898H61.575V0.136719H67.6248V1.2168H62.8396V4.41602H66.9959V5.48926ZM78.9068 10.0898V0.136719H81.2105C81.5979 0.141276 81.9625 0.182292 82.3043 0.259766C82.6507 0.332682 82.9697 0.4375 83.2613 0.574219C83.6669 0.761068 84.0247 1.00716 84.3346 1.3125C84.649 1.61328 84.8997 1.96191 85.0865 2.3584C85.2551 2.69564 85.3827 3.06478 85.4693 3.46582C85.5605 3.86686 85.6083 4.29525 85.6129 4.75098V5.48242C85.6129 5.91992 85.5696 6.33464 85.483 6.72656C85.401 7.11849 85.2802 7.47852 85.1207 7.80664C84.9566 8.14844 84.7493 8.45833 84.4986 8.73633C84.248 9.01432 83.9677 9.2513 83.6578 9.44727C83.3297 9.65234 82.9583 9.80957 82.5436 9.91895C82.1334 10.0283 81.6891 10.0853 81.2105 10.0898H78.9068ZM80.192 1.17578V9.05762H81.2105C81.5751 9.05306 81.9055 9.00749 82.2018 8.9209C82.5025 8.83431 82.7691 8.71126 83.0016 8.55176C83.2477 8.3877 83.4596 8.18717 83.6373 7.9502C83.8196 7.70866 83.9632 7.43978 84.068 7.14355C84.1591 6.90202 84.2275 6.64225 84.273 6.36426C84.3186 6.08171 84.3437 5.78776 84.3482 5.48242V4.7373C84.3437 4.42741 84.3163 4.13118 84.2662 3.84863C84.2206 3.56152 84.15 3.29492 84.0543 3.04883C83.9313 2.72982 83.7649 2.44271 83.5553 2.1875C83.3502 1.92773 83.0973 1.7181 82.7965 1.55859C82.5823 1.4401 82.343 1.34896 82.0787 1.28516C81.8144 1.2168 81.525 1.18034 81.2105 1.17578H80.192ZM93.2705 5.48926H89.1143V9.0166H93.9609V10.0898H87.8496V0.136719H93.8994V1.2168H89.1143V4.41602H93.2705V5.48926ZM98.9936 10.0898L95.849 0.136719H97.2025L99.39 7.56738L99.5336 8.05273L99.684 7.55371L101.885 0.136719H103.232L100.094 10.0898H98.9936Z" fill="white"/>
</svg>
