<svg preserveAspectRatio="none" width="100%" height="100%" overflow="visible" style="display: block;" viewBox="0 0 98 98" fill="none" xmlns="http://www.w3.org/2000/svg">
<g id="Ethereum Coin">
<path id="Coin" d="M96.5435 60.8261C90.005 87.0601 63.4344 103.08 37.1522 96.5371C10.9182 89.9786 -5.07549 63.4078 1.46299 37.1739C8.00148 10.9399 34.5561 -5.07951 60.7741 1.46295C87.0723 7.92523 103.066 34.5761 96.5435 60.8261Z" fill="var(--fill-0, #ECEFF0)" fill-opacity="0.5"/>
<g id="Ethereum">
<path d="M49.5711 60.8863C49.3807 60.951 49.2722 60.7854 49.1427 60.7092C42.7969 56.964 36.4581 53.2161 30.1263 49.4658C30.065 49.4348 30.0013 49.4087 29.9359 49.3877V49.304L30.0483 49.2392C30.2077 49.1974 30.3647 49.1465 30.5185 49.0869L45.4723 42.283C46.8049 41.6757 48.1376 41.0779 49.4702 40.4764H49.5654C49.5654 40.6667 49.5654 40.8362 49.5654 41.017C49.5704 47.6407 49.5723 54.2638 49.5711 60.8863Z" fill="#343535"/>
<path d="M49.5805 40.481H49.4853C49.4853 40.2906 49.5044 40.1002 49.5044 39.9003C49.5044 32.4606 49.5044 25.0201 49.5044 17.5791C49.4825 17.388 49.4954 17.1945 49.5424 17.008H49.5824C50.3649 18.1635 51.0464 19.3819 51.766 20.5755C57.4671 30.032 63.1649 39.4872 68.8597 48.9412C68.9149 49.0345 68.9586 49.1315 69.0081 49.2343C68.8469 49.1999 68.6884 49.1534 68.5341 49.0954C67.4889 48.6233 66.44 48.1435 65.4044 47.6619C63.7824 46.9194 62.1598 46.1782 60.5365 45.4383L52.716 41.8955C51.6746 41.4157 50.6276 40.9493 49.5805 40.481Z" fill="#2F3030"/>
<path d="M49.5487 16.9981C49.5017 17.1846 49.4888 17.3781 49.5106 17.5692C49.5106 25.009 49.5106 32.4494 49.5106 39.8905C49.5106 40.0809 49.4992 40.2712 49.4916 40.4711C48.159 41.0727 46.8264 41.6705 45.4938 42.2778L30.5399 49.0817C30.3862 49.1413 30.2292 49.1922 30.0697 49.234C30.5018 48.3355 31.0635 47.5207 31.5756 46.6602C37.5089 36.7976 43.4466 26.9369 49.3888 17.0781C49.4281 17.0235 49.4707 16.9713 49.5164 16.922L49.5487 16.9981Z" fill="#828384"/>
<path d="M49.5805 40.481C50.6276 40.9493 51.6749 41.4159 52.7201 41.888L60.5406 45.4309C62.1652 46.1695 63.7878 46.9107 65.4085 47.6544C66.4517 48.1323 67.5026 48.6158 68.5382 49.0879C68.6926 49.146 68.851 49.1924 69.0123 49.2269C69.2026 49.4649 68.9209 49.4744 68.8352 49.5258C67.2113 50.4967 65.5798 51.4543 63.9521 52.4175C59.2804 55.1818 54.6099 57.9454 49.9406 60.7083C49.8226 60.7769 49.6948 60.8273 49.5711 60.8863C49.5711 54.2651 49.5713 47.6443 49.5713 41.0218C49.5732 40.8409 49.5786 40.6618 49.5805 40.481Z" fill="#131313"/>
<path d="M49.5042 64.6474L61.7357 57.438C64.0709 56.0597 66.4049 54.6801 68.7376 53.2993L68.9489 53.1832C68.9699 53.3735 68.8385 53.4744 68.7586 53.5849C63.4281 61.0995 58.0976 68.6117 52.7672 76.1212C51.7582 77.5452 50.7511 78.9768 49.7326 80.3894C49.6793 80.4637 49.5975 80.812 49.4337 80.4427C49.5632 80.3323 49.5061 80.1838 49.5061 80.062C49.5073 74.9219 49.5067 69.7837 49.5042 64.6474Z" fill="#2F3030"/>
<path d="M49.5031 64.6484C49.5031 69.7847 49.5031 74.9197 49.5031 80.0534C49.5031 80.1848 49.5602 80.3333 49.4308 80.4342C49.1585 80.2704 49.0405 79.9773 48.8597 79.7355C42.6789 71.0291 36.5012 62.3214 30.3268 53.6125C30.2487 53.502 30.1764 53.384 30.0964 53.2622C30.2564 53.1689 30.342 53.2964 30.4353 53.3517C36.6859 57.0424 42.9352 60.7362 49.1833 64.4333C49.2994 64.5056 49.3984 64.5799 49.5031 64.6484Z" fill="#828384"/>
<path d="M49.5501 16.998L49.5044 16.9276C49.5882 16.8743 49.5768 16.9523 49.5901 16.9923L49.5501 16.998Z" fill="var(--fill-0, #393939)"/>
</g>
</g>
</svg>
