<svg width="1440" height="498" viewBox="0 0 1440 498" fill="none" xmlns="http://www.w3.org/2000/svg">
<g clip-path="url(#clip0_14_1203)">
<rect width="1440" height="498" fill="#141312"/>
<g opacity="0.5">
<circle opacity="0.660526" cx="1390.16" cy="92.1935" r="7.15835" transform="rotate(90 1390.16 92.1935)" fill="#1A0800"/>
<circle opacity="0.262814" cx="1390.16" cy="200.998" r="7.15835" transform="rotate(90 1390.16 200.998)" fill="#FF4500"/>
<circle opacity="0.459141" cx="1390.16" cy="309.803" r="7.15835" transform="rotate(90 1390.16 309.803)" fill="#611C00"/>
<circle opacity="0.797461" cx="1390.16" cy="418.608" r="7.15835" transform="rotate(90 1390.16 418.608)" fill="#1A0800"/>
<circle opacity="0.438783" cx="1241.27" cy="92.1935" r="7.15835" transform="rotate(90 1241.27 92.1935)" fill="#611C00"/>
<circle opacity="0.53475" cx="1241.27" cy="200.998" r="7.15835" transform="rotate(90 1241.27 200.998)" fill="#1A0800"/>
<circle opacity="0.679318" cx="1241.27" cy="309.803" r="7.15835" transform="rotate(90 1241.27 309.803)" fill="#1A0800"/>
<circle opacity="0.514699" cx="1241.27" cy="418.608" r="7.15835" transform="rotate(90 1241.27 418.608)" fill="#1A0800"/>
<circle opacity="0.605682" cx="1092.37" cy="92.1934" r="7.15835" transform="rotate(90 1092.37 92.1934)" fill="#1A0800"/>
<circle opacity="0.687629" cx="1092.37" cy="200.998" r="7.15835" transform="rotate(90 1092.37 200.998)" fill="#1A0800"/>
<circle opacity="0.397884" cx="1092.37" cy="309.803" r="7.15835" transform="rotate(90 1092.37 309.803)" fill="#611C00"/>
<circle opacity="0.537822" cx="1092.37" cy="418.608" r="7.15835" transform="rotate(90 1092.37 418.608)" fill="#1A0800"/>
<circle opacity="0.478815" cx="943.48" cy="92.1935" r="7.15835" transform="rotate(90 943.48 92.1935)" fill="#611C00"/>
<circle opacity="0.716957" cx="943.48" cy="200.998" r="7.15835" transform="rotate(90 943.48 200.998)" fill="#1A0800"/>
<circle opacity="0.555694" cx="943.48" cy="309.803" r="7.15835" transform="rotate(90 943.48 309.803)" fill="#1A0800"/>
<circle opacity="0.251282" cx="943.48" cy="418.608" r="7.15835" transform="rotate(90 943.48 418.608)" fill="#FF4500"/>
<circle opacity="0.379444" cx="794.586" cy="92.1934" r="7.15835" transform="rotate(90 794.586 92.1934)" fill="#611C00"/>
<circle opacity="0.329198" cx="794.586" cy="200.998" r="7.15835" transform="rotate(90 794.586 200.998)" fill="#FF4500"/>
<circle opacity="0.35171" cx="794.586" cy="309.803" r="7.15835" transform="rotate(90 794.586 309.803)" fill="#FF4500"/>
<circle opacity="0.316488" cx="794.586" cy="418.608" r="7.15835" transform="rotate(90 794.586 418.608)" fill="#FF4500"/>
<circle opacity="0.791717" cx="645.693" cy="92.1935" r="7.15835" transform="rotate(90 645.693 92.1935)" fill="#1A0800"/>
<circle opacity="0.483101" cx="645.693" cy="200.998" r="7.15835" transform="rotate(90 645.693 200.998)" fill="#611C00"/>
<circle opacity="0.333879" cx="645.693" cy="309.803" r="7.15835" transform="rotate(90 645.693 309.803)" fill="#FF4500"/>
<circle opacity="0.415208" cx="645.693" cy="418.608" r="7.15835" transform="rotate(90 645.693 418.608)" fill="#611C00"/>
<circle opacity="0.338567" cx="496.799" cy="92.1935" r="7.15835" transform="rotate(90 496.799 92.1935)" fill="#FF4500"/>
<circle opacity="0.706215" cx="496.799" cy="200.998" r="7.15835" transform="rotate(90 496.799 200.998)" fill="#1A0800"/>
<circle opacity="0.495184" cx="496.799" cy="309.803" r="7.15835" transform="rotate(90 496.799 309.803)" fill="#611C00"/>
<circle opacity="0.715777" cx="496.799" cy="418.608" r="7.15835" transform="rotate(90 496.799 418.608)" fill="#1A0800"/>
<circle opacity="0.293971" cx="347.904" cy="92.1935" r="7.15835" transform="rotate(90 347.904 92.1935)" fill="#FF4500"/>
<circle opacity="0.768729" cx="347.904" cy="200.998" r="7.15835" transform="rotate(90 347.904 200.998)" fill="#1A0800"/>
<circle opacity="0.59454" cx="347.904" cy="309.803" r="7.15835" transform="rotate(90 347.904 309.803)" fill="#1A0800"/>
<circle opacity="0.670828" cx="347.904" cy="418.608" r="7.15835" transform="rotate(90 347.904 418.608)" fill="#1A0800"/>
<circle opacity="0.604401" cx="199.012" cy="92.1934" r="7.15835" transform="rotate(90 199.012 92.1934)" fill="#1A0800"/>
<circle opacity="0.484222" cx="199.012" cy="200.998" r="7.15835" transform="rotate(90 199.012 200.998)" fill="#611C00"/>
<circle opacity="0.492288" cx="199.012" cy="309.803" r="7.15835" transform="rotate(90 199.012 309.803)" fill="#611C00"/>
<circle opacity="0.476231" cx="199.012" cy="418.608" r="7.15835" transform="rotate(90 199.012 418.608)" fill="#611C00"/>
<circle opacity="0.542421" cx="50.117" cy="92.1934" r="7.15835" transform="rotate(90 50.117 92.1934)" fill="#1A0800"/>
<circle opacity="0.301537" cx="50.117" cy="200.998" r="7.15835" transform="rotate(90 50.117 200.998)" fill="#FF4500"/>
<circle opacity="0.326661" cx="50.117" cy="309.803" r="7.15835" transform="rotate(90 50.117 309.803)" fill="#FF4500"/>
<circle opacity="0.632441" cx="50.117" cy="418.608" r="7.15835" transform="rotate(90 50.117 418.608)" fill="#1A0800"/>
</g>
</g>
<defs>
<clipPath id="clip0_14_1203">
<rect width="1440" height="498" fill="white"/>
</clipPath>
</defs>
</svg>
