<svg width="655" height="600" viewBox="0 0 655 600" fill="none" xmlns="http://www.w3.org/2000/svg">
<ellipse opacity="0.573616" cx="3.55206" cy="48.91" rx="3.55206" ry="3.55206" fill="#1A0800"/>
<ellipse opacity="0.69812" cx="57.5462" cy="48.91" rx="3.55206" ry="3.55206" fill="#1A0800"/>
<ellipse opacity="0.527096" cx="111.536" cy="48.91" rx="3.55206" ry="3.55206" fill="#1A0800"/>
<ellipse opacity="0.566461" cx="165.527" cy="48.91" rx="3.55206" ry="3.55206" fill="#1A0800"/>
<ellipse opacity="0.722903" cx="219.517" cy="48.91" rx="3.55206" ry="3.55206" fill="#1A0800"/>
<ellipse opacity="0.438783" cx="273.509" cy="48.91" rx="3.55206" ry="3.55206" fill="#611C00"/>
<ellipse opacity="0.53475" cx="327.499" cy="48.91" rx="3.55206" ry="3.55206" fill="#1A0800"/>
<ellipse opacity="0.679318" cx="381.49" cy="48.91" rx="3.55206" ry="3.55206" fill="#1A0800"/>
<ellipse opacity="0.514699" cx="435.48" cy="48.91" rx="3.55206" ry="3.55206" fill="#1A0800"/>
<ellipse opacity="0.759183" cx="489.478" cy="48.91" rx="3.55206" ry="3.55206" fill="#1A0800"/>
<ellipse opacity="0.688579" cx="543.468" cy="48.91" rx="3.55206" ry="3.55206" fill="#1A0800"/>
<ellipse opacity="0.53916" cx="597.46" cy="48.91" rx="3.55206" ry="3.55206" fill="#1A0800"/>
<ellipse opacity="0.533705" cx="651.449" cy="48.91" rx="3.55206" ry="3.55206" fill="#1A0800"/>
<ellipse opacity="0.287252" cx="3.55206" cy="122.793" rx="3.55206" ry="3.55206" fill="#FF4500"/>
<ellipse opacity="0.421148" cx="57.5462" cy="122.793" rx="3.55206" ry="3.55206" fill="#611C00"/>
<ellipse opacity="0.754479" cx="111.536" cy="122.793" rx="3.55206" ry="3.55206" fill="#1A0800"/>
<ellipse opacity="0.279698" cx="165.527" cy="122.793" rx="3.55206" ry="3.55206" fill="#FF4500"/>
<ellipse opacity="0.511811" cx="219.517" cy="122.793" rx="3.55206" ry="3.55206" fill="#611C00"/>
<ellipse opacity="0.605682" cx="273.509" cy="122.793" rx="3.55206" ry="3.55206" fill="#1A0800"/>
<ellipse opacity="0.687629" cx="327.499" cy="122.793" rx="3.55206" ry="3.55206" fill="#1A0800"/>
<ellipse opacity="0.397884" cx="381.49" cy="122.793" rx="3.55206" ry="3.55206" fill="#611C00"/>
<ellipse opacity="0.537822" cx="435.48" cy="122.793" rx="3.55206" ry="3.55206" fill="#1A0800"/>
<ellipse opacity="0.500937" cx="489.478" cy="122.793" rx="3.55206" ry="3.55206" fill="#611C00"/>
<ellipse opacity="0.78101" cx="543.468" cy="122.793" rx="3.55206" ry="3.55206" fill="#1A0800"/>
<ellipse opacity="0.532054" cx="597.46" cy="122.793" rx="3.55206" ry="3.55206" fill="#1A0800"/>
<ellipse opacity="0.743653" cx="651.449" cy="122.793" rx="3.55206" ry="3.55206" fill="#1A0800"/>
<ellipse opacity="0.674263" cx="3.55206" cy="196.676" rx="3.55206" ry="3.55206" fill="#1A0800"/>
<ellipse opacity="0.436942" cx="57.5462" cy="196.676" rx="3.55206" ry="3.55206" fill="#611C00"/>
<ellipse opacity="0.54691" cx="111.536" cy="196.676" rx="3.55206" ry="3.55206" fill="#1A0800"/>
<ellipse opacity="0.406447" cx="165.527" cy="196.676" rx="3.55206" ry="3.55206" fill="#611C00"/>
<ellipse opacity="0.488524" cx="219.517" cy="196.676" rx="3.55206" ry="3.55206" fill="#611C00"/>
<ellipse opacity="0.478815" cx="273.509" cy="196.676" rx="3.55206" ry="3.55206" fill="#611C00"/>
<ellipse opacity="0.716957" cx="327.499" cy="196.676" rx="3.55206" ry="3.55206" fill="#1A0800"/>
<ellipse opacity="0.555694" cx="381.49" cy="196.676" rx="3.55206" ry="3.55206" fill="#1A0800"/>
<ellipse opacity="0.251282" cx="435.48" cy="196.676" rx="3.55206" ry="3.55206" fill="#FF4500"/>
<ellipse opacity="0.502632" cx="489.478" cy="196.676" rx="3.55206" ry="3.55206" fill="#611C00"/>
<ellipse opacity="0.56623" cx="543.468" cy="196.676" rx="3.55206" ry="3.55206" fill="#1A0800"/>
<ellipse opacity="0.342875" cx="597.46" cy="196.676" rx="3.55206" ry="3.55206" fill="#FF4500"/>
<ellipse opacity="0.27952" cx="651.449" cy="196.676" rx="3.55206" ry="3.55206" fill="#FF4500"/>
<ellipse opacity="0.463098" cx="3.55206" cy="270.558" rx="3.55206" ry="3.55206" fill="#611C00"/>
<ellipse opacity="0.591615" cx="57.5462" cy="270.558" rx="3.55206" ry="3.55206" fill="#1A0800"/>
<ellipse opacity="0.313013" cx="111.536" cy="270.558" rx="3.55206" ry="3.55206" fill="#FF4500"/>
<ellipse opacity="0.363535" cx="165.527" cy="270.558" rx="3.55206" ry="3.55206" fill="#611C00"/>
<ellipse opacity="0.623197" cx="219.517" cy="270.558" rx="3.55206" ry="3.55206" fill="#1A0800"/>
<ellipse opacity="0.379444" cx="273.509" cy="270.558" rx="3.55206" ry="3.55206" fill="#611C00"/>
<ellipse opacity="0.329198" cx="327.499" cy="270.558" rx="3.55206" ry="3.55206" fill="#FF4500"/>
<ellipse opacity="0.35171" cx="381.49" cy="270.558" rx="3.55206" ry="3.55206" fill="#FF4500"/>
<ellipse opacity="0.316488" cx="435.48" cy="270.558" rx="3.55206" ry="3.55206" fill="#FF4500"/>
<ellipse opacity="0.579499" cx="489.478" cy="270.558" rx="3.55206" ry="3.55206" fill="#1A0800"/>
<ellipse opacity="0.798465" cx="543.468" cy="270.558" rx="3.55206" ry="3.55206" fill="#1A0800"/>
<ellipse opacity="0.485882" cx="597.46" cy="270.558" rx="3.55206" ry="3.55206" fill="#611C00"/>
<ellipse opacity="0.633923" cx="651.449" cy="270.558" rx="3.55206" ry="3.55206" fill="#1A0800"/>
<ellipse opacity="0.708021" cx="3.55206" cy="344.441" rx="3.55206" ry="3.55206" fill="#1A0800"/>
<ellipse opacity="0.473912" cx="57.5462" cy="344.441" rx="3.55206" ry="3.55206" fill="#611C00"/>
<ellipse opacity="0.73007" cx="111.536" cy="344.441" rx="3.55206" ry="3.55206" fill="#1A0800"/>
<ellipse opacity="0.574393" cx="165.527" cy="344.441" rx="3.55206" ry="3.55206" fill="#1A0800"/>
<ellipse opacity="0.636544" cx="219.517" cy="344.441" rx="3.55206" ry="3.55206" fill="#1A0800"/>
<ellipse opacity="0.791717" cx="273.509" cy="344.441" rx="3.55206" ry="3.55206" fill="#1A0800"/>
<ellipse opacity="0.483101" cx="327.499" cy="344.441" rx="3.55206" ry="3.55206" fill="#611C00"/>
<ellipse opacity="0.333879" cx="381.49" cy="344.441" rx="3.55206" ry="3.55206" fill="#FF4500"/>
<ellipse opacity="0.415208" cx="435.48" cy="344.441" rx="3.55206" ry="3.55206" fill="#611C00"/>
<ellipse opacity="0.378796" cx="489.478" cy="344.441" rx="3.55206" ry="3.55206" fill="#611C00"/>
<ellipse opacity="0.439909" cx="543.468" cy="344.441" rx="3.55206" ry="3.55206" fill="#611C00"/>
<ellipse opacity="0.641046" cx="597.46" cy="344.441" rx="3.55206" ry="3.55206" fill="#1A0800"/>
<ellipse opacity="0.719499" cx="651.449" cy="344.441" rx="3.55206" ry="3.55206" fill="#1A0800"/>
<ellipse opacity="0.471473" cx="3.55206" cy="418.324" rx="3.55206" ry="3.55206" fill="#611C00"/>
<ellipse opacity="0.308327" cx="57.5462" cy="418.324" rx="3.55206" ry="3.55206" fill="#FF4500"/>
<ellipse opacity="0.406044" cx="111.536" cy="418.324" rx="3.55206" ry="3.55206" fill="#611C00"/>
<ellipse opacity="0.576738" cx="165.527" cy="418.324" rx="3.55206" ry="3.55206" fill="#1A0800"/>
<ellipse opacity="0.33551" cx="219.517" cy="418.324" rx="3.55206" ry="3.55206" fill="#FF4500"/>
<ellipse opacity="0.338567" cx="273.509" cy="418.324" rx="3.55206" ry="3.55206" fill="#FF4500"/>
<ellipse opacity="0.706215" cx="327.499" cy="418.324" rx="3.55206" ry="3.55206" fill="#1A0800"/>
<ellipse opacity="0.495184" cx="381.49" cy="418.324" rx="3.55206" ry="3.55206" fill="#611C00"/>
<ellipse opacity="0.715777" cx="435.48" cy="418.324" rx="3.55206" ry="3.55206" fill="#1A0800"/>
<ellipse opacity="0.780535" cx="489.478" cy="418.324" rx="3.55206" ry="3.55206" fill="#1A0800"/>
<ellipse opacity="0.399291" cx="543.468" cy="418.324" rx="3.55206" ry="3.55206" fill="#611C00"/>
<ellipse opacity="0.377639" cx="597.46" cy="418.324" rx="3.55206" ry="3.55206" fill="#611C00"/>
<ellipse opacity="0.538575" cx="651.449" cy="418.324" rx="3.55206" ry="3.55206" fill="#1A0800"/>
<ellipse opacity="0.576382" cx="3.55206" cy="492.207" rx="3.55206" ry="3.55206" fill="#1A0800"/>
<ellipse opacity="0.744269" cx="57.5462" cy="492.207" rx="3.55206" ry="3.55206" fill="#1A0800"/>
<ellipse opacity="0.51543" cx="111.536" cy="492.207" rx="3.55206" ry="3.55206" fill="#1A0800"/>
<ellipse opacity="0.667304" cx="165.527" cy="492.207" rx="3.55206" ry="3.55206" fill="#1A0800"/>
<ellipse opacity="0.751404" cx="219.517" cy="492.207" rx="3.55206" ry="3.55206" fill="#1A0800"/>
<ellipse opacity="0.293971" cx="273.509" cy="492.207" rx="3.55206" ry="3.55206" fill="#FF4500"/>
<ellipse opacity="0.768729" cx="327.499" cy="492.207" rx="3.55206" ry="3.55206" fill="#1A0800"/>
<ellipse opacity="0.59454" cx="381.49" cy="492.207" rx="3.55206" ry="3.55206" fill="#1A0800"/>
<ellipse opacity="0.670828" cx="435.48" cy="492.207" rx="3.55206" ry="3.55206" fill="#1A0800"/>
<ellipse opacity="0.368708" cx="489.478" cy="492.207" rx="3.55206" ry="3.55206" fill="#611C00"/>
<ellipse opacity="0.371089" cx="543.468" cy="492.207" rx="3.55206" ry="3.55206" fill="#611C00"/>
<ellipse opacity="0.272721" cx="597.46" cy="492.207" rx="3.55206" ry="3.55206" fill="#FF4500"/>
<ellipse opacity="0.376935" cx="651.449" cy="492.207" rx="3.55206" ry="3.55206" fill="#611C00"/>
<ellipse opacity="0.399645" cx="3.55206" cy="566.09" rx="3.55206" ry="3.55206" fill="#611C00"/>
<ellipse opacity="0.653259" cx="57.5462" cy="566.09" rx="3.55206" ry="3.55206" fill="#1A0800"/>
<ellipse opacity="0.459625" cx="111.536" cy="566.09" rx="3.55206" ry="3.55206" fill="#611C00"/>
<ellipse opacity="0.68446" cx="165.527" cy="566.09" rx="3.55206" ry="3.55206" fill="#1A0800"/>
<ellipse opacity="0.411532" cx="219.517" cy="566.09" rx="3.55206" ry="3.55206" fill="#611C00"/>
<ellipse opacity="0.604401" cx="273.509" cy="566.09" rx="3.55206" ry="3.55206" fill="#1A0800"/>
<ellipse opacity="0.484222" cx="327.499" cy="566.09" rx="3.55206" ry="3.55206" fill="#611C00"/>
<ellipse opacity="0.492288" cx="381.49" cy="566.089" rx="3.55206" ry="3.55206" fill="#611C00"/>
<ellipse opacity="0.476231" cx="435.48" cy="566.089" rx="3.55206" ry="3.55206" fill="#611C00"/>
<ellipse opacity="0.692588" cx="489.478" cy="566.089" rx="3.55206" ry="3.55206" fill="#1A0800"/>
<ellipse opacity="0.325469" cx="543.468" cy="566.089" rx="3.55206" ry="3.55206" fill="#FF4500"/>
<ellipse opacity="0.313887" cx="597.46" cy="566.089" rx="3.55206" ry="3.55206" fill="#FF4500"/>
<ellipse opacity="0.781273" cx="651.449" cy="566.089" rx="3.55206" ry="3.55206" fill="#1A0800"/>
</svg>
