<svg width="24" height="24" viewBox="0 0 24 24" fill="none" xmlns="http://www.w3.org/2000/svg">
<path d="M23.641 14.9029C22.0383 21.3315 15.5272 25.2438 9.09778 23.6407C2.67108 22.0381 -1.24126 15.5265 0.362129 9.09837C1.96411 2.66903 8.47528 -1.24361 14.9027 0.359081C21.3316 1.96177 25.2437 8.47405 23.6409 14.903L23.641 14.9029H23.641Z" fill="#1600D3"/>
<path fill-rule="evenodd" clip-rule="evenodd" d="M17.2929 10.2903C17.5317 8.69334 16.3159 7.83492 14.6534 7.26227L15.1927 5.09908L13.8759 4.77096L13.3509 6.8772C13.0047 6.79086 12.6492 6.70951 12.2959 6.62886L12.8247 4.50872L11.5087 4.1806L10.9691 6.34309C10.6826 6.27787 10.4013 6.21341 10.1283 6.14548L10.1298 6.13868L8.31392 5.68522L7.96363 7.09165C7.96363 7.09165 8.94059 7.31559 8.92 7.32937C9.45323 7.46246 9.54966 7.81545 9.53365 8.09523L8.9193 10.5596C8.95602 10.5689 9.00364 10.5824 9.0562 10.6036L9.01793 10.594L9.01789 10.594C8.98542 10.5859 8.95166 10.5774 8.91701 10.5691L8.0559 14.0214C7.99073 14.1834 7.82533 14.4265 7.45251 14.3342C7.46571 14.3533 6.49544 14.0953 6.49544 14.0953L5.84167 15.6026L7.55528 16.0298C7.74292 16.0769 7.92834 16.1252 8.11189 16.1731L8.11192 16.1731C8.2402 16.2065 8.36755 16.2397 8.49411 16.2721L7.9492 18.4601L9.26448 18.7882L9.80411 16.6234C10.1634 16.721 10.5121 16.8109 10.8535 16.8958L10.3157 19.0503L11.6326 19.3784L12.1774 17.1945C14.4228 17.6195 16.1112 17.4482 16.8219 15.4172C17.3945 13.782 16.7934 12.8388 15.6121 12.2238C16.4725 12.0253 17.1205 11.4594 17.2933 10.2905L17.2929 10.2902L17.2929 10.2903ZM14.2843 14.5091C13.9109 16.0093 11.5627 15.3891 10.4882 15.1053C10.3916 15.0798 10.3053 15.057 10.2316 15.0387L10.9547 12.14C11.0445 12.1624 11.1542 12.187 11.2785 12.2149C12.3898 12.4643 14.6668 12.9753 14.2843 14.5091H14.2843ZM11.5014 10.8695C12.3971 11.1086 14.3512 11.6301 14.6915 10.2666H14.6916C15.0391 8.87204 13.1401 8.4516 12.2126 8.24625C12.1083 8.22315 12.0162 8.20277 11.9411 8.18404L11.2855 10.813C11.3474 10.8284 11.42 10.8478 11.5014 10.8695Z" fill="white"/>
</svg>
