<svg width="24" height="24" viewBox="0 0 24 24" fill="none" xmlns="http://www.w3.org/2000/svg">
<rect width="24" height="24" rx="12" fill="#1600D3"/>
<path fill-rule="evenodd" clip-rule="evenodd" d="M12 5.33331C12.1097 5.3333 12.2177 5.36036 12.3145 5.41212C12.4113 5.46387 12.4937 5.5387 12.5546 5.62998L16.546 11.6173C16.6236 11.7282 16.6657 11.8602 16.6665 11.9956C16.6674 12.131 16.6269 12.2634 16.5506 12.3753L12.5546 18.37C12.4938 18.4613 12.4113 18.5361 12.3145 18.5879C12.2178 18.6397 12.1097 18.6668 12 18.6668C11.8902 18.6668 11.7822 18.6397 11.6854 18.5879C11.5887 18.5361 11.5062 18.4613 11.4453 18.37L7.4493 12.3753C7.38691 12.2837 7.34832 12.1781 7.33703 12.0678C7.32574 11.9576 7.3421 11.8463 7.38464 11.744C7.40309 11.6994 7.42634 11.6569 7.45397 11.6173L11.4453 5.63065C11.5061 5.53925 11.5886 5.46428 11.6853 5.41241C11.7821 5.36054 11.8902 5.33337 12 5.33331ZM12.6666 8.20198L14.9613 11.6433L12.6666 12.4086V8.20198ZM11.3333 8.20198V12.4086L9.03864 11.6433L11.3333 8.20198ZM12 16.798L9.63264 13.2466L11.7893 13.966C11.9261 14.0115 12.0739 14.0115 12.2106 13.966L14.3673 13.2466L12 16.798Z" fill="white"/>
</svg>
