<svg width="24" height="24" viewBox="0 0 24 24" fill="none" xmlns="http://www.w3.org/2000/svg">
<rect width="24" height="24" rx="12" fill="#1600D3"/>
<g clip-path="url(#clip0_48_14649)">
<path d="M16.0781 16.0483L16.3857 17.4034C16.4033 17.4716 16.3945 17.5355 16.3594 17.5952C16.3242 17.6548 16.2744 17.696 16.21 17.7188L16.166 17.7273C16.1426 17.7386 16.1118 17.7486 16.0737 17.7571C16.0356 17.7656 15.9888 17.7784 15.9331 17.7955C15.8774 17.8125 15.8145 17.8281 15.7441 17.8423C15.6738 17.8565 15.5991 17.8707 15.52 17.8849C15.4409 17.8991 15.353 17.9134 15.2563 17.9276C15.1597 17.9418 15.0615 17.9545 14.9619 17.9659C14.8623 17.9773 14.7554 17.9858 14.6411 17.9915C14.5269 17.9972 14.4141 18 14.3027 18C12.9316 18 11.7334 17.6293 10.708 16.8878C9.68262 16.1463 8.98535 15.1477 8.61621 13.892H7.78125C7.70508 13.892 7.63916 13.8651 7.5835 13.8111C7.52783 13.7571 7.5 13.6932 7.5 13.6193V12.6562C7.5 12.5824 7.52783 12.5185 7.5835 12.4645C7.63916 12.4105 7.70508 12.3835 7.78125 12.3835H8.36133C8.34961 12.0597 8.35254 11.7614 8.37012 11.4886H7.78125C7.69922 11.4886 7.63184 11.4631 7.5791 11.4119C7.52637 11.3608 7.5 11.2955 7.5 11.2159V10.2443C7.5 10.1648 7.52637 10.0994 7.5791 10.0483C7.63184 9.99716 7.69922 9.97159 7.78125 9.97159H8.64258C9.03516 8.77841 9.74854 7.81818 10.7827 7.09091C11.8169 6.36364 12.9902 6 14.3027 6C14.9004 6 15.4688 6.06534 16.0078 6.19602C16.0723 6.21307 16.1309 6.25568 16.1836 6.32386C16.2188 6.38636 16.2275 6.45455 16.21 6.52841L15.832 7.88352C15.8145 7.95739 15.7734 8.01278 15.709 8.04972C15.6445 8.08665 15.5742 8.09375 15.498 8.07102L15.4629 8.0625C15.4395 8.05682 15.4058 8.04972 15.3618 8.04119L15.208 8.01136L15.0103 7.98153L14.7817 7.95597L14.5269 7.93466L14.2676 7.92614C13.5293 7.92614 12.8672 8.10795 12.2812 8.47159C11.6953 8.83523 11.2559 9.33523 10.9629 9.97159H15.0762C15.1699 9.97159 15.2432 10.0057 15.2959 10.0739C15.3545 10.142 15.375 10.2159 15.3574 10.2955L15.1465 11.267C15.1172 11.4148 15.0234 11.4886 14.8652 11.4886H10.5762C10.5586 11.6989 10.5586 11.9972 10.5762 12.3835H14.6104C14.6982 12.3835 14.7715 12.4176 14.8301 12.4858C14.8828 12.554 14.9004 12.6307 14.8828 12.7159L14.6719 13.6705C14.6602 13.733 14.6279 13.7855 14.5752 13.8281C14.5225 13.8707 14.4639 13.892 14.3994 13.892H10.998C11.2793 14.5568 11.7173 15.0838 12.312 15.473C12.9067 15.8622 13.5762 16.0568 14.3203 16.0568C14.4258 16.0568 14.5312 16.0526 14.6367 16.044C14.7422 16.0355 14.8403 16.0256 14.9312 16.0142C15.022 16.0028 15.1084 15.9901 15.1904 15.9759C15.2725 15.9616 15.3442 15.9474 15.4058 15.9332C15.4673 15.919 15.5215 15.9062 15.5684 15.8949L15.6738 15.8693L15.7178 15.8523C15.7939 15.8239 15.8701 15.8295 15.9463 15.8693C16.0166 15.9091 16.0605 15.9688 16.0781 16.0483Z" fill="#F5F5F5"/>
</g>
<defs>
<clipPath id="clip0_48_14649">
<rect width="9" height="12" fill="white" transform="translate(7.5 6)"/>
</clipPath>
</defs>
</svg>
