<svg width="24" height="24" viewBox="0 0 24 24" fill="none" xmlns="http://www.w3.org/2000/svg">
<path d="M23.6383 14.9029C22.0356 21.3315 15.5244 25.2438 9.09503 23.6407C2.66833 22.0381 -1.24401 15.5265 0.359382 9.09837C1.96137 2.66903 8.47253 -1.24361 14.8999 0.359081C21.3289 1.96177 25.241 8.47405 23.6381 14.903L23.6382 14.9029H23.6383Z" fill="#1600D3"/>
<g clip-path="url(#clip0_48_14673)">
<path d="M15.8661 14.5804C15.8661 15.4911 15.5551 16.2753 14.9333 16.933C14.3114 17.5908 13.5036 17.997 12.5098 18.1518V19.7143C12.5098 19.7976 12.4817 19.8661 12.4254 19.9196C12.3692 19.9732 12.2973 20 12.2098 20H10.9442C10.8629 20 10.7926 19.9717 10.7333 19.9152C10.6739 19.8586 10.6442 19.7917 10.6442 19.7143V18.1518C10.2317 18.0982 9.83325 18.006 9.44888 17.875C9.0645 17.744 8.74731 17.6116 8.49731 17.4777C8.24731 17.3438 8.01606 17.2009 7.80356 17.0491C7.59106 16.8973 7.44575 16.7857 7.36763 16.7143C7.2895 16.6429 7.23481 16.5893 7.20356 16.5536C7.09731 16.4286 7.09106 16.3065 7.18481 16.1875L8.15044 14.9821C8.19419 14.9226 8.26606 14.8869 8.36606 14.875C8.45981 14.8631 8.53481 14.8899 8.59106 14.9554L8.60981 14.9732C9.31606 15.5625 10.0754 15.9345 10.8879 16.0893C11.1192 16.1369 11.3504 16.1607 11.5817 16.1607C12.0879 16.1607 12.5333 16.0327 12.9176 15.7768C13.302 15.5208 13.4942 15.1577 13.4942 14.6875C13.4942 14.5208 13.4473 14.3631 13.3536 14.2143C13.2598 14.0655 13.1551 13.9405 13.0395 13.8393C12.9239 13.7381 12.7411 13.6265 12.4911 13.5045C12.2411 13.3824 12.0348 13.2872 11.8723 13.2188C11.7098 13.1503 11.4598 13.0536 11.1223 12.9286C10.8786 12.8333 10.6864 12.7589 10.5458 12.7054C10.4051 12.6518 10.2129 12.5729 9.96919 12.4688C9.72544 12.3646 9.53013 12.2723 9.38325 12.192C9.23638 12.1116 9.05981 12.006 8.85356 11.875C8.64731 11.744 8.48013 11.6176 8.352 11.4955C8.22388 11.3735 8.08794 11.2277 7.94419 11.058C7.80044 10.8884 7.6895 10.7158 7.61138 10.5402C7.53325 10.3646 7.46763 10.1667 7.4145 9.94643C7.36138 9.72619 7.33481 9.49405 7.33481 9.25C7.33481 8.42857 7.64106 7.70833 8.25356 7.08929C8.86606 6.47024 9.66294 6.07143 10.6442 5.89286V4.28571C10.6442 4.20833 10.6739 4.14137 10.7333 4.08482C10.7926 4.02827 10.8629 4 10.9442 4H12.2098C12.2973 4 12.3692 4.02679 12.4254 4.08036C12.4817 4.13393 12.5098 4.20238 12.5098 4.28571V5.85714C12.8661 5.89286 13.2114 5.96131 13.5458 6.0625C13.8801 6.16369 14.152 6.26339 14.3614 6.36161C14.5708 6.45982 14.7692 6.57143 14.9567 6.69643C15.1442 6.82143 15.2661 6.90774 15.3223 6.95536C15.3786 7.00298 15.4254 7.04464 15.4629 7.08036C15.5692 7.1875 15.5848 7.3006 15.5098 7.41964L14.7504 8.72321C14.7004 8.8125 14.6286 8.86012 14.5348 8.86607C14.4473 8.88393 14.3629 8.8631 14.2817 8.80357C14.2629 8.78571 14.2176 8.75 14.1458 8.69643C14.0739 8.64286 13.952 8.56399 13.7801 8.45982C13.6083 8.35565 13.4254 8.26042 13.2317 8.17411C13.0379 8.0878 12.8051 8.01042 12.5333 7.94196C12.2614 7.87351 11.9942 7.83929 11.7317 7.83929C11.1379 7.83929 10.6536 7.96726 10.2786 8.22321C9.90356 8.47917 9.71606 8.80952 9.71606 9.21429C9.71606 9.36905 9.74263 9.51191 9.79575 9.64286C9.84888 9.77381 9.94106 9.89732 10.0723 10.0134C10.2036 10.1295 10.327 10.2277 10.4426 10.308C10.5583 10.3884 10.7333 10.4807 10.9676 10.5848C11.202 10.689 11.3911 10.7693 11.5348 10.8259C11.6786 10.8824 11.8973 10.9643 12.1911 11.0714C12.5223 11.1905 12.7754 11.2842 12.9504 11.3527C13.1254 11.4211 13.3629 11.5253 13.6629 11.6652C13.9629 11.8051 14.1989 11.9315 14.3708 12.0446C14.5426 12.1577 14.7364 12.3065 14.952 12.4911C15.1676 12.6756 15.3333 12.8646 15.4489 13.058C15.5645 13.2515 15.6629 13.4792 15.7442 13.7411C15.8254 14.003 15.8661 14.2827 15.8661 14.5804Z" fill="#F5F5F5"/>
</g>
<defs>
<clipPath id="clip0_48_14673">
<rect width="9" height="16" fill="white" transform="translate(6.99731 4)"/>
</clipPath>
</defs>
</svg>
