<svg preserveAspectRatio="none" width="100%" height="100%" overflow="visible" style="display: block;" viewBox="0 0 110 27.6123" fill="none" xmlns="http://www.w3.org/2000/svg">
<g id="Container">
<path id="visa-logo" fill-rule="evenodd" clip-rule="evenodd" d="M12.2505 21.5033H8.00987L4.82991 9.37157C4.67897 8.81351 4.3585 8.32015 3.88708 8.08762C2.71062 7.50328 1.41424 7.03823 0 6.80368V6.33661H6.83134C7.77417 6.33661 8.48129 7.03823 8.59914 7.85308L10.2491 16.6041L14.4877 6.33661H18.6104L12.2505 21.5033ZM20.9675 21.5033H16.9626L20.2604 6.33661H24.2653L20.9675 21.5033ZM29.4467 10.5382C29.5646 9.72138 30.2717 9.2543 31.0967 9.2543C32.3931 9.13703 33.8052 9.37158 34.9838 9.9539L35.6909 6.68844C34.5123 6.22137 33.216 5.98682 32.0395 5.98682C28.1524 5.98682 25.3239 8.08764 25.3239 11.0033C25.3239 13.2214 27.3274 14.386 28.7417 15.0877C30.2717 15.7873 30.861 16.2543 30.7431 16.9539C30.7431 18.0033 29.5646 18.4704 28.3881 18.4704C26.9739 18.4704 25.5596 18.1206 24.2653 17.5362L23.5582 20.8037C24.9724 21.3861 26.5025 21.6206 27.9167 21.6206C32.2752 21.7359 34.9838 19.6371 34.9838 16.4868C34.9838 12.5198 29.4467 12.2872 29.4467 10.5382V10.5382ZM49 21.5033L45.82 6.33661H42.4044C41.6972 6.33661 40.9901 6.80368 40.7544 7.50328L34.8659 21.5033H38.9887L39.8116 19.2872H44.8772L45.3486 21.5033H49ZM42.9936 10.421L44.1701 16.1371H40.8723L42.9936 10.421Z" fill="var(--fill-0, #172B85)"/>
<g id="Mastercard">
<path id="Left" d="M96.3525 0C103.89 4.69241e-05 110 6.18101 110 13.8057C110 21.4305 103.89 27.6123 96.3525 27.6123C92.9742 27.6123 89.8832 26.3694 87.5 24.3125C85.1168 26.3694 82.0258 27.6123 78.6475 27.6123C71.1102 27.6123 65 21.4305 65 13.8057C65.0002 6.181 71.1103 4.37972e-05 78.6475 0C82.0254 0 85.1169 1.24135 87.5 3.29785C89.8831 1.24135 92.9746 0 96.3525 0Z" fill="var(--fill-0, #ED0006)"/>
<path id="Right" d="M96.3525 0C103.89 4.71848e-05 110 6.18101 110 13.8057C110 21.4305 103.89 27.6123 96.3525 27.6123C92.9742 27.6123 89.8832 26.3694 87.5 24.3125C90.434 21.7802 92.2949 18.013 92.2949 13.8057C92.2948 9.5981 90.4344 5.83006 87.5 3.29785C89.8831 1.24135 92.9746 0 96.3525 0Z" fill="var(--fill-0, #F9A000)"/>
<path id="Middle" d="M87.4999 3.29813C90.4343 5.83039 92.2948 9.59832 92.2949 13.8059C92.2949 18.0133 90.434 21.7805 87.4999 24.3128C84.5659 21.7805 82.705 18.0133 82.705 13.8059C82.705 9.59838 84.5656 5.83039 87.4999 3.29813Z" fill="var(--fill-0, #FF5E00)"/>
</g>
</g>
</svg>
